<svg width="16" height="16" viewBox="0 0 16 16" fill="none" xmlns="http://www.w3.org/2000/svg">
<path d="M2.96712 9.27214L7.60219 13.6263C7.65404 13.675 7.67996 13.6993 7.70464 13.7174C7.8805 13.8462 8.1195 13.8462 8.29536 13.7174C8.32004 13.6993 8.34597 13.675 8.39781 13.6263L13.0329 9.27214C14.337 8.04706 14.4954 6.03106 13.3985 4.61738L13.1923 4.35156C11.8802 2.66038 9.24642 2.94401 8.32445 4.87576C8.19421 5.14864 7.80579 5.14864 7.67556 4.87576C6.75358 2.94401 4.11982 2.66038 2.8077 4.35156L2.60146 4.61738C1.50463 6.03106 1.663 8.04706 2.96712 9.27214Z" stroke="#5F5F5F" stroke-width="2"/>
</svg>
